<?xml version="1.0" encoding="UTF-8" standalone="no"?>
<!-- Created with Inkscape (http://www.inkscape.org/) -->

<svg
   xmlns:dc="http://purl.org/dc/elements/1.1/"
   xmlns:cc="http://creativecommons.org/ns#"
   xmlns:rdf="http://www.w3.org/1999/02/22-rdf-syntax-ns#"
   xmlns:svg="http://www.w3.org/2000/svg"
   xmlns="http://www.w3.org/2000/svg"
   xmlns:sodipodi="http://sodipodi.sourceforge.net/DTD/sodipodi-0.dtd"
   xmlns:inkscape="http://www.inkscape.org/namespaces/inkscape"
   width="152.24937mm"
   height="148.63783mm"
   viewBox="0 0 152.24937 148.63783"
   version="1.1"
   id="svg8"
   inkscape:version="0.92.2 2405546, 2018-03-11"
   sodipodi:docname="github.svg">
  <defs
     id="defs2" />
  <sodipodi:namedview
     id="base"
     pagecolor="#ffffff"
     bordercolor="#666666"
     borderopacity="1.0"
     inkscape:pageopacity="0.0"
     inkscape:pageshadow="2"
     inkscape:zoom="0.98994949"
     inkscape:cx="235.38426"
     inkscape:cy="331.24832"
     inkscape:document-units="mm"
     inkscape:current-layer="layer1"
     showgrid="false"
     showborder="false"
     inkscape:window-width="1280"
     inkscape:window-height="959"
     inkscape:window-x="0"
     inkscape:window-y="0"
     inkscape:window-maximized="1" />
  <metadata
     id="metadata5">
    <rdf:RDF>
      <cc:Work
         rdf:about="">
        <dc:format>image/svg+xml</dc:format>
        <dc:type
           rdf:resource="http://purl.org/dc/dcmitype/StillImage" />
        <dc:title />
      </cc:Work>
    </rdf:RDF>
  </metadata>
  <g
     inkscape:label="Layer 1"
     inkscape:groupmode="layer"
     id="layer1"
     transform="translate(13.37292,-113.22696)">
    <path
       style="fill:none;stroke:#000000;stroke-width:0.26458332px;stroke-linecap:butt;stroke-linejoin:miter;stroke-opacity:1"
       d="m 43.319916,151.75137 c 0,0 -12.373116,-8.87116 -20.357863,-7.35926 0,0 -4.488467,13.70163 -0.330729,20.41071 0,0 -10.314673,9.53282 -7.107438,27.03898 0,0 0.06682,27.92966 33.609142,30.73599"
       id="path826"
       inkscape:connector-curvature="0" />
    <path
       style="fill:none;stroke:#000000;stroke-width:0.26458332px;stroke-linecap:butt;stroke-linejoin:miter;stroke-opacity:1"
       d="m 43.319916,151.75137 c 0,0 20.579754,-5.0113 39.355437,0 0,0 15.301182,-9.75534 20.512937,-7.21628"
       id="path828"
       inkscape:connector-curvature="0" />
    <path
       style="fill:none;stroke:#000000;stroke-width:0.26458332px;stroke-linecap:butt;stroke-linejoin:miter;stroke-opacity:1"
       d="m 103.18829,144.53509 c 0,0 4.54358,11.02487 0.73499,20.17885 0,0 8.8199,7.95127 7.48355,23.052 0,0 2.364,32.88286 -34.488676,34.77275 0,0 5.556748,6.31994 4.888574,13.13531 v 22.71791 c 0,0 0.534539,3.0736 4.677217,3.34087"
       id="path830"
       inkscape:connector-curvature="0" />
    <path
       style="fill:none;stroke:#000000;stroke-width:0.26458332px;stroke-linecap:butt;stroke-linejoin:miter;stroke-opacity:1"
       d="m 86.483945,261.73278 c 0,0 43.965835,-14.83346 50.914845,-58.93294 0,0 11.49259,-48.1085 -32.60688,-77.24088 0,0 -38.754084,-28.330571 -83.655364,1.33635 0,0 -28.0633005,13.36347 -33.943231,53.98844 0,0 -8.552625,55.59206 50.246672,80.71539 0,0 6.280833,0.93545 6.681738,-2.27179 v -14.69982 c 0,0 -11.358955,3.34087 -18.040693,-1.33635 0,0 -4.810851,-0.26727 -9.488068,-12.56167 0,0 -2.672695,-4.67721 -5.61266,-6.5481 0,0 -2.4054259,-1.23612 -3.9422257,-2.83974 0,0 -1.1358955,-2.13816 2.372017,-2.13816 0,0 4.2429037,-0.63476 7.5837727,2.2718 0,0 3.875408,2.47224 5.044712,5.44561 0,0 3.57473,7.21628 11.49259,7.91786 h 3.641547 c 0,0 5.679478,-0.90203 7.182869,-1.97111"
       id="path832"
       inkscape:connector-curvature="0" />
    <path
       style="fill:none;stroke:#000000;stroke-width:0.26458332px;stroke-linecap:butt;stroke-linejoin:miter;stroke-opacity:1"
       d="m 44.355585,232.86767 c 0,0 0.467722,-7.24969 4.777443,-10.28988"
       id="path834"
       inkscape:connector-curvature="0" />
    <path
       style="opacity:1;fill:#4c3d6d;fill-opacity:0.91764706;stroke:none;stroke-width:19.84375;stroke-linecap:butt;stroke-linejoin:miter;stroke-miterlimit:4;stroke-dasharray:none;stroke-opacity:1;paint-order:normal"
       d="M 33.445239,259.44176 C 6.5673488,246.55748 -9.2162118,224.86716 -12.498905,196.3037 c -2.086886,-18.15848 4.3478801,-39.34027 16.5453406,-54.4635 4.8490785,-6.01221 10.5186844,-10.745 18.7429084,-15.64593 13.376012,-7.97096 23.750144,-11.4734 36.417282,-12.29494 29.728708,-1.92809 58.807164,14.82094 71.719814,41.31021 4.9629,10.18099 7.40719,21.17462 7.40719,33.31516 0,14.12873 -3.57257,27.87552 -10.02035,38.55705 -8.23692,13.64545 -21.14343,24.92081 -36.848236,32.19128 -5.049038,2.33743 -6.272503,2.47611 -8.02649,0.90975 l -1.234387,-1.10233 -0.188989,-14.3002 -0.188987,-14.30019 -1.235733,-2.61974 c -0.679649,-1.44086 -1.641618,-3.15188 -2.137701,-3.80229 l -0.901973,-1.18254 3.460618,-0.44038 c 16.457056,-2.09423 26.800318,-11.12573 29.968528,-26.16783 0.94998,-4.51032 0.96326,-15.3454 0.0234,-19.08186 -0.8362,-3.32435 -3.56089,-8.96407 -5.31359,-10.99837 l -1.33455,-1.54897 0.52203,-1.73457 c 1.28586,-4.27259 1.04714,-10.65923 -0.59745,-15.9838 -0.95363,-3.08747 -1.59823,-3.46481 -4.96446,-2.90617 -3.255354,0.54024 -7.641296,2.29855 -12.552214,5.03214 l -4.134532,2.30142 -3.047016,-0.59303 c -5.686219,-1.10668 -8.326588,-1.33492 -15.53015,-1.34242 -7.183832,-0.007 -10.508713,0.25585 -17.093774,1.35381 l -3.496543,0.583 -2.173099,-1.31785 c -3.497277,-2.12089 -8.022363,-4.26302 -10.829168,-5.12642 -2.977833,-0.916 -7.337381,-1.13942 -7.794699,-0.39947 -0.161902,0.26196 -0.673108,2.27239 -1.136015,4.46761 -1.096923,5.20189 -1.142992,10.71477 -0.11453,13.70533 l 0.730173,2.1232 -1.244856,1.46757 c -1.773313,2.09059 -4.088974,6.68457 -5.031766,9.98239 -1.556467,5.44442 -1.356043,15.38141 0.449252,22.27383 2.443519,9.32908 9.124338,17.02243 18.09826,20.84117 3.102727,1.32034 8.486341,2.77222 11.813196,3.18586 l 2.199254,0.27344 -0.929246,0.99265 c -1.355317,1.44779 -2.527977,3.98633 -3.058165,6.62024 l -0.464966,2.3099 -2.051936,0.70938 c -1.233919,0.42658 -3.558758,0.78084 -5.831695,0.88864 -3.247625,0.15402 -4.087582,0.0629 -5.966196,-0.64693 -2.687017,-1.01535 -6.185278,-4.14275 -7.764952,-6.94178 -1.276845,-2.26245 -4.702629,-5.562 -7.012961,-6.75455 -1.073344,-0.55405 -2.495075,-0.85474 -4.580288,-0.96874 -2.7373627,-0.14965 -3.0939157,-0.0877 -3.7638724,0.65435 -0.9180944,1.01684 -0.6041435,1.61994 1.7207711,3.30563 4.6428373,3.3663 6.7837133,5.9178 8.6234023,10.2774 1.625764,3.85265 4.319152,7.77734 6.207643,9.0455 4.576071,3.07294 9.720614,4.24681 15.499412,3.53664 1.969814,-0.24208 3.852401,-0.5441 4.183519,-0.67116 0.538076,-0.20648 0.602041,0.55347 0.602041,7.15251 v 7.38355 l -0.995915,0.78338 c -0.767964,0.60408 -1.524947,0.77978 -3.307292,0.76765 -1.964677,-0.0134 -2.878329,-0.28752 -6.091138,-1.82762 z"
       id="path880"
       inkscape:connector-curvature="0" />
    <path
       style="opacity:1;fill:#4c3d6d;fill-opacity:1;stroke:none;stroke-width:75;stroke-linecap:butt;stroke-linejoin:miter;stroke-miterlimit:4;stroke-dasharray:none;stroke-opacity:1;paint-order:normal"
       d="m 309.11065,877.08392 c -0.0908,-0.9532 -1.47467,-6.28049 -2.18158,-8.39776 -2.79691,-8.37715 -7.79275,-17.66928 -13.53441,-25.17367 l -1.43458,-1.875 1.72593,-0.12709 c 12.8433,-0.94572 22.76578,-2.4132 33.12181,-4.89853 1.45524,-0.34924 2.68606,-0.59482 2.73515,-0.54572 0.12022,0.12022 -5.14764,1.37595 -9.41814,2.24506 -5.13597,1.04525 -10.40393,1.86404 -19.17698,2.98064 -4.32132,0.55 -7.87419,1.01725 -7.89526,1.03832 -0.0211,0.0211 0.81363,1.15956 1.8549,2.52996 3.99869,5.26262 6.22704,9.2232 11.6955,20.78713 l 2.65617,5.61691 -0.053,3.13309 c -0.0292,1.7232 -0.0721,2.93219 -0.0955,2.68666 z"
       id="path884"
       inkscape:connector-curvature="0"
       transform="scale(0.26458333)" />
    <path
       style="opacity:1;fill:#4c3d6d;fill-opacity:1;stroke:none;stroke-width:75;stroke-linecap:butt;stroke-linejoin:miter;stroke-miterlimit:4;stroke-dasharray:none;stroke-opacity:1;paint-order:normal"
       d="m 104.12645,923.82579 c -1.375,-0.57044 -3.27798,-1.40379 -4.228835,-1.85189 -2.053056,-0.9675 -6.448883,-3.35733 -6.352584,-3.45363 0.03716,-0.0372 0.7055,0.21023 1.485204,0.54975 0.779705,0.33952 1.859608,0.71562 2.399787,0.83577 0.614821,0.13676 1.51643,0.56524 2.410714,1.14567 1.503614,0.9759 4.444544,2.54329 6.250004,3.33097 2.10778,0.91957 0.48671,0.4602 -1.96429,-0.55664 z"
       id="path888"
       inkscape:connector-curvature="0"
       transform="scale(0.26458333)" />
    <path
       style="opacity:1;fill:#4c3d6d;fill-opacity:1;stroke:none;stroke-width:75;stroke-linecap:butt;stroke-linejoin:miter;stroke-miterlimit:4;stroke-dasharray:none;stroke-opacity:1;paint-order:normal"
       d="m 165.83349,963.26623 c -0.0264,-19.13141 -0.22233,-31.24922 -0.54529,-33.72036 -0.21914,-1.67673 -0.60843,-2.80756 -1.02101,-2.96588 -0.15286,-0.0587 -1.17117,0.0915 -2.26291,0.33358 -4.54975,1.00904 -14.92243,2.40244 -20.82426,2.7974 -5.2574,0.35182 -14.20508,-0.01 -18.125,-0.73266 -0.86312,-0.15915 -0.8542,-0.16167 0.26786,-0.0755 0.63839,0.0491 2.04464,0.18306 3.125,0.29781 2.71275,0.28812 13.44671,0.28243 16.875,-0.009 6.37554,-0.54189 13.75524,-1.69109 19.65311,-3.06047 1.71063,-0.39717 3.13134,-0.72213 3.15714,-0.72213 0.12349,0 -0.007,55.14723 -0.13168,55.53571 -0.0786,0.24554 -0.15422,-7.70982 -0.16796,-17.67857 z"
       id="path890"
       inkscape:connector-curvature="0"
       transform="scale(0.26458333)" />
    <path
       style="opacity:1;fill:#4c3d6d;fill-opacity:1;stroke:none;stroke-width:75;stroke-linecap:butt;stroke-linejoin:miter;stroke-miterlimit:4;stroke-dasharray:none;stroke-opacity:1;paint-order:normal"
       d="m 123.86177,886.65924 c -11.02118,-1.68812 -20.96017,-6.8476 -29.382106,-15.25269 -3.489247,-3.48226 -6.154835,-6.75248 -8.662387,-10.62726 -0.979247,-1.51318 -4.059944,-7.41938 -3.935097,-7.54422 0.06181,-0.0618 1.984968,2.88305 3.410772,5.22279 5.507486,9.03775 16.300058,18.96796 25.533098,23.49291 7.46557,3.65875 12.39812,4.46261 24.01786,3.91419 11.6039,-0.54766 18.27557,-1.65673 26.31971,-4.37527 2.73923,-0.92574 5.00844,-1.71117 5.04268,-1.74541 0.0343,-0.0343 0.50717,-2.25903 1.05094,-4.94397 1.63103,-8.05342 2.77147,-12.00982 4.8137,-16.69959 1.03641,-2.38003 2.70198,-5.61352 3.21938,-6.25 0.43093,-0.53013 0.30853,-0.25334 -1.18486,2.67949 -3.37362,6.6254 -5.90369,15.30222 -6.79238,23.29438 l -0.22311,2.00646 -1.37409,0.69088 c -3.60906,1.8146 -11.79876,4.03173 -21.37345,5.78626 l -3.44791,0.63181 -7.7128,-0.0173 c -5.58031,-0.0125 -8.15716,-0.0854 -9.31995,-0.26346 z"
       id="path892"
       inkscape:connector-curvature="0"
       transform="scale(0.26458333)" />
    <path
       style="opacity:1;fill:#4c3d6d;fill-opacity:1;stroke:none;stroke-width:75;stroke-linecap:butt;stroke-linejoin:miter;stroke-miterlimit:4;stroke-dasharray:none;stroke-opacity:1;paint-order:normal"
       d="m 73.278721,896.54993 c -2.935272,-4.90574 -5.011134,-8.95458 -7.53637,-14.69921 -4.742446,-10.78855 -8.461838,-16.7687 -14.68324,-23.60815 -3.10263,-3.41086 -7.419435,-7.32929 -12.242242,-11.11249 -1.30148,-1.02093 -2.338473,-1.88409 -2.304427,-1.91813 0.07422,-0.0742 4.087723,2.22787 5.470551,3.13782 4.787876,3.1506 11.241147,10.2868 16.730413,18.50095 2.862788,4.28387 3.301052,5.10246 5.067065,9.46428 3.062619,7.56427 6.284648,14.25105 9.561928,19.84418 0.838739,1.43143 1.487641,2.63993 1.442006,2.68557 -0.04564,0.0456 -0.723195,-0.98703 -1.505684,-2.29482 z"
       id="path894"
       inkscape:connector-curvature="0"
       transform="scale(0.26458333)" />
    <path
       style="opacity:1;fill:#4c3d6d;fill-opacity:1;stroke:none;stroke-width:75;stroke-linecap:butt;stroke-linejoin:miter;stroke-miterlimit:4;stroke-dasharray:none;stroke-opacity:1;paint-order:normal"
       d="m 25.687078,836.43193 c -1.186745,-1.66307 -1.265504,-3.19649 -0.243141,-4.7339 0.499057,-0.75047 1.577247,-1.96833 2.19835,-2.48313 0.672037,-0.55702 1.763627,-1.08807 2.630849,-1.27988 1.129006,-0.24971 3.112803,-0.34365 5.521555,-0.26145 2.429577,0.0829 2.38455,0.094 -1.188118,0.29186 -1.965365,0.10886 -3.188697,0.26951 -4.281765,0.5623 -2.537006,0.67955 -4.029858,1.8552 -4.674544,3.68128 -0.320257,0.90714 -0.311869,2.26549 0.02092,3.38802 0.128752,0.43428 0.296411,0.91012 0.372574,1.0574 0.248806,0.48114 0.06248,0.36491 -0.356683,-0.2225 z"
       id="path896"
       inkscape:connector-curvature="0"
       transform="scale(0.26458333)" />
    <path
       style="opacity:1;fill:#4c3d6d;fill-opacity:1;stroke:none;stroke-width:75;stroke-linecap:butt;stroke-linejoin:miter;stroke-miterlimit:4;stroke-dasharray:none;stroke-opacity:1;paint-order:normal"
       d="m 72.68693,842.96088 c -1.533385,-1.43726 -5.026548,-4.19946 -7.33333,-5.7988 -0.522169,-0.36203 -1.322126,-0.95958 -1.77768,-1.32789 -3.782773,-3.05827 -8.234841,-5.29304 -13.344347,-6.69837 -1.458794,-0.40122 -1.409244,-0.4461 0.143971,-0.13038 2.391327,0.48609 4.666127,1.18625 6.50069,2.00085 3.042455,1.35094 7.370271,4.31473 11.60133,7.94486 1.379394,1.18348 4.266901,3.82135 4.738322,4.32867 0.409511,0.4407 0.05062,0.2243 -0.528956,-0.31894 z"
       id="path898"
       inkscape:connector-curvature="0"
       transform="scale(0.26458333)" />
  </g>
</svg>
