<?xml version="1.0" encoding="UTF-8" standalone="no"?>
<!-- Created with Inkscape (http://www.inkscape.org/) -->

<svg
   xmlns:dc="http://purl.org/dc/elements/1.1/"
   xmlns:cc="http://creativecommons.org/ns#"
   xmlns:rdf="http://www.w3.org/1999/02/22-rdf-syntax-ns#"
   xmlns:svg="http://www.w3.org/2000/svg"
   xmlns="http://www.w3.org/2000/svg"
   xmlns:sodipodi="http://sodipodi.sourceforge.net/DTD/sodipodi-0.dtd"
   xmlns:inkscape="http://www.inkscape.org/namespaces/inkscape"
   width="261.11963mm"
   height="262.72327mm"
   viewBox="0 0 261.11963 262.72327"
   version="1.1"
   id="svg8"
   inkscape:version="0.92.2 2405546, 2018-03-11"
   sodipodi:docname="instagram.svg">
  <defs
     id="defs2" />
  <sodipodi:namedview
     id="base"
     pagecolor="#ffffff"
     bordercolor="#666666"
     borderopacity="1.0"
     inkscape:pageopacity="0.0"
     inkscape:pageshadow="2"
     inkscape:zoom="0.49497475"
     inkscape:cx="414.1817"
     inkscape:cy="583.75588"
     inkscape:document-units="mm"
     inkscape:current-layer="layer1"
     showgrid="false"
     showborder="false"
     inkscape:window-width="1280"
     inkscape:window-height="959"
     inkscape:window-x="0"
     inkscape:window-y="0"
     inkscape:window-maximized="1" />
  <metadata
     id="metadata5">
    <rdf:RDF>
      <cc:Work
         rdf:about="">
        <dc:format>image/svg+xml</dc:format>
        <dc:type
           rdf:resource="http://purl.org/dc/dcmitype/StillImage" />
        <dc:title />
      </cc:Work>
    </rdf:RDF>
  </metadata>
  <g
     inkscape:label="Layer 1"
     inkscape:groupmode="layer"
     id="layer1"
     transform="translate(123.61081,-18.907399)">
    <path
       style="fill:none;stroke:#000000;stroke-width:0.26458332px;stroke-linecap:butt;stroke-linejoin:miter;stroke-opacity:1"
       d="M -99.958802,84.253455 V 216.81914 l -10e-7,-0.53454 c 0,0 -2.138157,28.86511 29.399648,38.48681 H 82.319014 c 0,0 25.123336,-2.67269 30.468726,-38.48681 V 86.391612"
       id="path826"
       inkscape:connector-curvature="0"
       sodipodi:nodetypes="ccccccc" />
    <path
       style="fill:none;stroke:#000000;stroke-width:0.26458332px;stroke-linecap:butt;stroke-linejoin:miter;stroke-opacity:1"
       d="m 112.78774,86.391611 c 0,0 -3.74177,-34.2105 -35.814118,-41.694046 H -59.333835 c 0,0 -37.417731,1.603616 -40.624967,39.55589"
       id="path828"
       inkscape:connector-curvature="0"
       sodipodi:nodetypes="cccc" />
    <path
       style="fill:none;stroke:#000000;stroke-width:0.26458332px;stroke-linecap:butt;stroke-linejoin:miter;stroke-opacity:1"
       d="M -62.006529,19.039691 H 74.835466"
       id="path830"
       inkscape:connector-curvature="0" />
    <path
       style="fill:none;stroke:#000000;stroke-width:0.26458332px;stroke-linecap:butt;stroke-linejoin:miter;stroke-opacity:1"
       d="m 74.835466,19.039691 c 0,0 53.988444,5.87993 62.541074,63.610146"
       id="path832"
       inkscape:connector-curvature="0" />
    <path
       style="fill:none;stroke:#000000;stroke-width:0.26458332px;stroke-linecap:butt;stroke-linejoin:miter;stroke-opacity:1"
       d="M 137.37654,82.649837 V 216.2846 c 0,0 -1.06908,48.64306 -55.592065,65.21377 H -60.402913 c 0,0 -51.850287,0 -63.075607,-52.38483 V 71.959058 c 0,0 5.34539,-42.763125 61.471991,-52.919367"
       id="path834"
       inkscape:connector-curvature="0" />
    <ellipse
       style="opacity:1;fill:#4c3d6d;fill-opacity:0.91764706;stroke:none;stroke-width:19.84375;stroke-linecap:butt;stroke-linejoin:miter;stroke-miterlimit:4;stroke-dasharray:none;stroke-opacity:1;paint-order:normal"
       id="path836"
       cx="77.085876"
       cy="80.244408"
       rx="16.148424"
       ry="15.234363" />
    <ellipse
       style="opacity:1;fill:#4c3d6d;fill-opacity:0.91764706;stroke:none;stroke-width:19.84374809;stroke-linecap:butt;stroke-linejoin:miter;stroke-miterlimit:4;stroke-dasharray:none;stroke-opacity:1;paint-order:normal"
       id="path838"
       cx="4.7400613"
       cy="150.80357"
       rx="68.350204"
       ry="67.619194" />
    <path
       style="opacity:1;fill:#4c3d6d;fill-opacity:0.91764706;stroke:none;stroke-width:74.99999237;stroke-linecap:butt;stroke-linejoin:miter;stroke-miterlimit:4;stroke-dasharray:none;stroke-opacity:1;paint-order:normal"
       d="m -246.7089,1061.0851 c -33.4016,-3.515 -73.77329,-16.5107 -102.87975,-33.1171 -57.60458,-32.8659 -93.46472,-80.34848 -112.10904,-148.4442 -4.08232,-14.91007 -4.13752,-19.06463 -4.13752,-311.40605 V 271.82337 l 4.90176,-16.89352 c 10.54889,-36.35586 28.93808,-67.65011 56.63697,-96.38332 37.26847,-38.66013 86.41641,-65.38843 147.56285,-80.24963 l 20.20305,-4.910205 261.875541,-0.0026 261.875519,-0.0026 19.03798,4.82938 C 416.51344,106.17931 490.42398,182.61138 513.9687,293.00733 c 4.17292,19.56589 4.21235,22.62704 3.63889,282.41995 l -0.57977,262.63966 -5.53699,20.20305 c -26.5004,96.69342 -86.71573,161.48751 -183.76299,197.73641 l -19.60975,7.3246 -269.293876,-0.2685 c -148.111634,-0.1477 -276.601524,-1.0375 -285.533114,-1.9774 z M 326.41664,960.31643 c 17.59526,-5.50834 31.48999,-13.92427 47.10425,-28.53063 23.61983,-22.09519 39.07956,-50.05378 48.74418,-88.15278 l 4.87457,-19.21617 V 571.35361 318.29038 l -5.13479,-17.90366 c -6.59783,-23.00495 -22.10531,-54.52588 -35.50961,-72.17778 -18.24792,-24.03037 -46.79032,-44.65477 -76.1297,-55.0104 l -13.53558,-4.77751 -266.862178,-0.0426 c -260.498502,-0.0416 -267.243252,0.054 -282.842712,4.00814 -34.64173,8.78097 -59.43397,22.29713 -81.60352,44.48835 -16.79852,16.81493 -26.31006,31.44393 -33.80185,51.98815 -10.9441,30.01125 -10.68291,22.51301 -10.66764,306.23688 0.0137,254.73598 0.13886,263.4872 3.99841,279.58582 11.77892,49.13127 43.15066,84.67345 91.62009,103.7997 l 14.47398,5.71148 291.216188,0.0695 c 285.161152,0.0681 291.483172,-0.0141 304.055912,-3.95004 z"
       id="path844"
       inkscape:connector-curvature="0"
       transform="scale(0.26458333)" />
  </g>
</svg>
