<?xml version="1.0" encoding="UTF-8" standalone="no"?>
<!-- Created with Inkscape (http://www.inkscape.org/) -->

<svg
   xmlns:dc="http://purl.org/dc/elements/1.1/"
   xmlns:cc="http://creativecommons.org/ns#"
   xmlns:rdf="http://www.w3.org/1999/02/22-rdf-syntax-ns#"
   xmlns:svg="http://www.w3.org/2000/svg"
   xmlns="http://www.w3.org/2000/svg"
   xmlns:sodipodi="http://sodipodi.sourceforge.net/DTD/sodipodi-0.dtd"
   xmlns:inkscape="http://www.inkscape.org/namespaces/inkscape"
   width="89.015251mm"
   height="96.686752mm"
   viewBox="0 0 89.015251 96.686752"
   version="1.1"
   id="svg8"
   inkscape:version="0.92.2 2405546, 2018-03-11"
   sodipodi:docname="logo.svg">
  <defs
     id="defs2" />
  <sodipodi:namedview
     id="base"
     pagecolor="#ffffff"
     bordercolor="#666666"
     borderopacity="1.0"
     inkscape:pageopacity="0.0"
     inkscape:pageshadow="2"
     inkscape:zoom="1.4"
     inkscape:cx="89.166712"
     inkscape:cy="134.62909"
     inkscape:document-units="mm"
     inkscape:current-layer="layer1"
     showgrid="false"
     showguides="false"
     inkscape:guide-bbox="true"
     inkscape:window-width="1280"
     inkscape:window-height="959"
     inkscape:window-x="0"
     inkscape:window-y="0"
     inkscape:window-maximized="1"
     showborder="false">
    <sodipodi:guide
       position="-44.468897,81.200578"
       orientation="0,1"
       id="guide978"
       inkscape:locked="false" />
    <sodipodi:guide
       position="0.1322915,92.823358"
       orientation="1,0"
       id="guide980"
       inkscape:locked="false" />
  </sodipodi:namedview>
  <metadata
     id="metadata5">
    <rdf:RDF>
      <cc:Work
         rdf:about="">
        <dc:format>image/svg+xml</dc:format>
        <dc:type
           rdf:resource="http://purl.org/dc/dcmitype/StillImage" />
        <dc:title />
      </cc:Work>
    </rdf:RDF>
  </metadata>
  <g
     inkscape:label="Layer 1"
     inkscape:groupmode="layer"
     id="layer1"
     transform="translate(-61.855802,-123.14181)">
    <path
       style="fill:none;stroke:#000000;stroke-width:0.26458332px;stroke-linecap:butt;stroke-linejoin:miter;stroke-opacity:1"
       d="m 150.74001,218.42276 c -2.10991,-15.2503 -0.24354,-33.00692 -12.02713,-44.90125"
       id="path826"
       inkscape:connector-curvature="0" />
    <path
       style="fill:none;stroke:#000000;stroke-width:0.26458332px;stroke-linecap:butt;stroke-linejoin:miter;stroke-opacity:1"
       d="m 138.71288,173.52148 c 0,0 9.46828,-39.83104 -28.43919,-49.98831 l -48.285596,-0.25836 v 15.23436"
       id="path828"
       inkscape:connector-curvature="0"
       sodipodi:nodetypes="cccc" />
    <path
       style="fill:none;stroke:#000000;stroke-width:0.26458332px;stroke-linecap:butt;stroke-linejoin:miter;stroke-opacity:1"
       d="m 61.988094,138.50917 44.919716,0.13363"
       id="path830"
       inkscape:connector-curvature="0"
       sodipodi:nodetypes="cc" />
    <path
       style="fill:none;stroke:#000000;stroke-width:0.26458332px;stroke-linecap:butt;stroke-linejoin:miter;stroke-opacity:1"
       d="m 106.90781,138.6428 c 8.429,2.34589 16.33286,8.90984 18.12452,17.80182 1.47912,6.96882 -0.37564,14.1478 -3.15743,20.55136 7.01834,8.17804 12.29157,18.70381 11.73324,29.71906 -0.23036,3.98384 -1.33332,7.90506 -3.18061,11.44045"
       id="path832"
       inkscape:connector-curvature="0"
       sodipodi:nodetypes="ccccc" />
    <path
       style="fill:none;stroke:#000000;stroke-width:0.26458332px;stroke-linecap:butt;stroke-linejoin:miter;stroke-opacity:1"
       d="m 104.10541,219.49184 c 5.12349,-5.51389 10.14026,-14.0641 6.53857,-21.11269 -2.94748,-6.66506 -9.49746,-11.24111 -17.318811,-11.55921 -10.169671,0 -21.072926,-0.0321 -31.337075,0 v 32.60045 c 19.385548,0 42.117316,0.0714 42.117316,0.0714 z"
       id="path834"
       inkscape:connector-curvature="0"
       sodipodi:nodetypes="ccccccc" />
    <path
       style="fill:none;stroke:#000000;stroke-width:0.26458332px;stroke-linecap:butt;stroke-linejoin:miter;stroke-opacity:1"
       d="m 104.76965,170.37798 c 7.39293,-2.11688 6.71801,-13.81787 -0.26726,-15.59152 H 61.988094 v 15.59152 z"
       id="path836"
       inkscape:connector-curvature="0"
       sodipodi:nodetypes="ccccc" />
    <path
       style="fill:none;stroke:#000000;stroke-width:0.26458332px;stroke-linecap:butt;stroke-linejoin:miter;stroke-opacity:1"
       d="m 130.42753,218.15549 20.31248,0.26727"
       id="path863"
       inkscape:connector-curvature="0" />
    <path
       style="opacity:1;fill:#333333;fill-opacity:1;stroke:none;stroke-width:75;stroke-linecap:butt;stroke-linejoin:miter;stroke-miterlimit:4;stroke-dasharray:none;stroke-opacity:1;paint-order:normal"
       d="m 508.12452,823.89051 -13.71326,-0.21023 2.03254,-4.53014 c 2.93174,-6.5343 5.42646,-14.2804 7.31515,-22.71357 1.44829,-6.46671 1.64526,-9.20442 1.60944,-22.36855 -0.0366,-13.46737 -0.23741,-15.92867 -1.96473,-24.08892 -5.4237,-25.62273 -18.24967,-51.81695 -36.72884,-75.01059 l -4.97351,-6.24236 3.14214,-7.93269 c 11.03521,-27.85957 13.28686,-56.26792 6.19449,-78.15401 -8.12394,-25.06942 -31.496,-47.25303 -60.50707,-57.43035 l -6.30691,-2.21251 H 319.63801 235.05207 V 494.8322 466.66782 l 58.39286,0.30951 c 32.11607,0.17023 73.24131,0.446 91.38942,0.61283 l 32.99656,0.30332 10.76303,3.59494 c 49.25313,16.45099 81.13315,50.05307 93.25643,98.29388 4.18287,16.64439 4.98948,24.12197 4.96981,46.07143 -0.0171,19.12459 -0.14004,20.75787 -2.84843,37.85715 -0.36324,2.2933 -0.004,2.9429 4.34024,7.85714 14.07778,15.9234 24.36561,38.22346 29.58782,64.13508 2.89446,14.36173 4.61498,28.50887 6.79408,55.86492 1.01705,12.76786 2.31727,27.34307 2.88939,32.38937 0.57212,5.04629 1.04022,9.46594 1.04022,9.82143 0,0.59909 -25.62014,0.64639 -60.49898,0.11169 z"
       id="path990"
       inkscape:connector-curvature="0"
       transform="scale(0.26458333)" />
    <path
       style="opacity:1;fill:#333333;fill-opacity:1;stroke:none;stroke-width:75;stroke-linecap:butt;stroke-linejoin:miter;stroke-miterlimit:4;stroke-dasharray:none;stroke-opacity:1;paint-order:normal"
       d="m 235.05207,767.60312 v -61.10775 l 61.96429,0.2594 c 59.59335,0.24946 62.21026,0.31591 68.39285,1.73664 15.10951,3.47207 26.26342,9.57398 36.84731,20.15788 10.73175,10.73175 17.59363,23.37095 19.28322,35.5186 2.28482,16.42732 -6.17293,37.67851 -23.26956,58.46771 l -4.99619,6.07528 h -79.11095 -79.11097 z"
       id="path992"
       inkscape:connector-curvature="0"
       transform="scale(0.26458333)" />
    <path
       style="opacity:1;fill:#333333;fill-opacity:1;stroke:none;stroke-width:75;stroke-linecap:butt;stroke-linejoin:miter;stroke-miterlimit:4;stroke-dasharray:none;stroke-opacity:1;paint-order:normal"
       d="m 235.05207,614.42516 v -28.57143 h 80.24306 80.24306 l 4.34009,2.16878 c 4.94023,2.46865 8.59078,6.16437 11.22614,11.365 7.99153,15.77052 3.23567,34.46913 -10.62302,41.76653 l -3.49924,1.84255 h -80.96505 -80.96504 z"
       id="path994"
       inkscape:connector-curvature="0"
       transform="scale(0.26458333)" />
    <path
       style="opacity:1;fill:#4c3d6d;fill-opacity:0.00392157;stroke:none;stroke-width:75;stroke-linecap:butt;stroke-linejoin:miter;stroke-miterlimit:4;stroke-dasharray:none;stroke-opacity:1;paint-order:normal"
       d="m 263.71644,357.85159 c -1.48549,-0.18258 -2.24064,-0.60908 -2.01085,-1.13569 4.90923,-11.25057 9.75536,-28.01488 9.84516,-34.05761 0.0263,-1.76785 0.19457,-7.35271 0.37399,-12.4108 0.17942,-5.05807 0.13071,-9.70602 -0.10826,-10.32875 -0.23897,-0.62274 -0.54109,-3.55574 -0.67138,-6.51777 -0.29834,-6.78228 -4.31415,-22.34279 -8.58518,-33.26595 -6.59163,-16.85808 -16.37977,-33.91461 -28.41317,-49.512 l -5.70327,-7.39243 3.36267,-9.03615 c 4.03453,-10.84156 7.56689,-23.9716 7.73693,-28.75874 0.068,-1.91429 0.38928,-3.48304 0.71397,-3.48611 0.32468,-0.003 0.49849,-1.2776 0.38623,-2.8323 -0.11225,-1.55469 0.0239,-3.05469 0.30253,-3.33333 0.93247,-0.93247 0.51393,-19.83084 -0.58993,-26.63744 -5.00749,-30.876832 -28.36699,-56.551146 -63.33655,-69.61288 l -6.93309,-2.589631 H 85.769333 1.4524264 L 1.4521458,29.265438 1.4518652,1.5868668 92.462726,2.1343597 l 91.010864,0.547493 10.3356,3.5229929 c 17.11739,5.8346344 29.66338,12.0200044 42.06921,20.7407894 7.4875,5.263402 19.49599,16.500267 25.56999,23.926946 17.26148,21.105607 28.50282,50.814999 30.81066,81.428569 0.9821,13.02763 0.3828,37.95462 -1.14684,47.70055 -1.42934,9.1069 -1.10765,11.28192 2.25638,15.25619 16.36621,19.33513 26.36501,42.0129 31.60692,71.68612 2.08248,11.78843 3.2552,22.32341 6.12241,55 1.3961,15.91071 2.7341,30.61607 2.97335,32.67857 l 0.43498,3.75 -34.20548,-0.11432 c -18.81302,-0.0629 -35.27597,-0.24587 -36.58433,-0.40667 z"
       id="path827"
       inkscape:connector-curvature="0"
       transform="matrix(0.26458333,0,0,0.26458333,61.855802,123.14181)" />
    <path
       style="opacity:1;fill:#4c3d6d;fill-opacity:0.00392157;stroke:none;stroke-width:75;stroke-linecap:butt;stroke-linejoin:miter;stroke-miterlimit:4;stroke-dasharray:none;stroke-opacity:1;paint-order:normal"
       d="m 263.71644,357.85159 c -1.48549,-0.18258 -2.24064,-0.60908 -2.01085,-1.13569 4.90923,-11.25057 9.75536,-28.01488 9.84516,-34.05761 0.0263,-1.76785 0.19457,-7.35271 0.37399,-12.4108 0.17942,-5.05807 0.13071,-9.70602 -0.10826,-10.32875 -0.23897,-0.62274 -0.54109,-3.55574 -0.67138,-6.51777 -0.29834,-6.78228 -4.31415,-22.34279 -8.58518,-33.26595 -6.59163,-16.85808 -16.37977,-33.91461 -28.41317,-49.512 l -5.70327,-7.39243 3.36267,-9.03615 c 4.03453,-10.84156 7.56689,-23.9716 7.73693,-28.75874 0.068,-1.91429 0.38928,-3.48304 0.71397,-3.48611 0.32468,-0.003 0.49849,-1.2776 0.38623,-2.8323 -0.11225,-1.55469 0.0239,-3.05469 0.30253,-3.33333 0.93247,-0.93247 0.51393,-19.83084 -0.58993,-26.63744 -5.00749,-30.876832 -28.36699,-56.551146 -63.33655,-69.61288 l -6.93309,-2.589631 H 85.769333 1.4524264 L 1.4521458,29.265438 1.4518652,1.5868668 92.462726,2.1343597 l 91.010864,0.547493 10.3356,3.5229929 c 17.11739,5.8346344 29.66338,12.0200044 42.06921,20.7407894 7.4875,5.263402 19.49599,16.500267 25.56999,23.926946 17.26148,21.105607 28.50282,50.814999 30.81066,81.428569 0.9821,13.02763 0.3828,37.95462 -1.14684,47.70055 -1.42934,9.1069 -1.10765,11.28192 2.25638,15.25619 16.36621,19.33513 26.36501,42.0129 31.60692,71.68612 2.08248,11.78843 3.2552,22.32341 6.12241,55 1.3961,15.91071 2.7341,30.61607 2.97335,32.67857 l 0.43498,3.75 -34.20548,-0.11432 c -18.81302,-0.0629 -35.27597,-0.24587 -36.58433,-0.40667 z"
       id="path829"
       inkscape:connector-curvature="0"
       transform="matrix(0.26458333,0,0,0.26458333,61.855802,123.14181)" />
    <path
       style="opacity:1;fill:#4c3d6d;fill-opacity:0.00392157;stroke:none;stroke-width:75;stroke-linecap:butt;stroke-linejoin:miter;stroke-miterlimit:4;stroke-dasharray:none;stroke-opacity:1;paint-order:normal"
       d="m 263.71644,357.85159 c -1.48549,-0.18258 -2.24064,-0.60908 -2.01085,-1.13569 4.90923,-11.25057 9.75536,-28.01488 9.84516,-34.05761 0.0263,-1.76785 0.19457,-7.35271 0.37399,-12.4108 0.17942,-5.05807 0.13071,-9.70602 -0.10826,-10.32875 -0.23897,-0.62274 -0.54109,-3.55574 -0.67138,-6.51777 -0.29834,-6.78228 -4.31415,-22.34279 -8.58518,-33.26595 -6.59163,-16.85808 -16.37977,-33.91461 -28.41317,-49.512 l -5.70327,-7.39243 3.36267,-9.03615 c 4.03453,-10.84156 7.56689,-23.9716 7.73693,-28.75874 0.068,-1.91429 0.38928,-3.48304 0.71397,-3.48611 0.32468,-0.003 0.49849,-1.2776 0.38623,-2.8323 -0.11225,-1.55469 0.0239,-3.05469 0.30253,-3.33333 0.93247,-0.93247 0.51393,-19.83084 -0.58993,-26.63744 -5.00749,-30.876832 -28.36699,-56.551146 -63.33655,-69.61288 l -6.93309,-2.589631 H 85.769333 1.4524264 L 1.4521458,29.265438 1.4518652,1.5868668 92.462726,2.1343597 l 91.010864,0.547493 10.3356,3.5229929 c 17.11739,5.8346344 29.66338,12.0200044 42.06921,20.7407894 7.4875,5.263402 19.49599,16.500267 25.56999,23.926946 17.26148,21.105607 28.50282,50.814999 30.81066,81.428569 0.9821,13.02763 0.3828,37.95462 -1.14684,47.70055 -1.42934,9.1069 -1.10765,11.28192 2.25638,15.25619 16.36621,19.33513 26.36501,42.0129 31.60692,71.68612 2.08248,11.78843 3.2552,22.32341 6.12241,55 1.3961,15.91071 2.7341,30.61607 2.97335,32.67857 l 0.43498,3.75 -34.20548,-0.11432 c -18.81302,-0.0629 -35.27597,-0.24587 -36.58433,-0.40667 z"
       id="path831"
       inkscape:connector-curvature="0"
       transform="matrix(0.26458333,0,0,0.26458333,61.855802,123.14181)" />
    <path
       style="opacity:1;fill:#4c3d6d;fill-opacity:0.82941175;stroke:none;stroke-width:75;stroke-linecap:butt;stroke-linejoin:miter;stroke-miterlimit:4;stroke-dasharray:none;stroke-opacity:1;paint-order:normal"
       d="m 263.71644,357.85159 c -1.48549,-0.18258 -2.24064,-0.60908 -2.01085,-1.13569 4.90923,-11.25057 9.75536,-28.01488 9.84516,-34.05761 0.0263,-1.76785 0.19457,-7.35271 0.37399,-12.4108 0.17942,-5.05807 0.13071,-9.70602 -0.10826,-10.32875 -0.23897,-0.62274 -0.54109,-3.55574 -0.67138,-6.51777 -0.29834,-6.78228 -4.31415,-22.34279 -8.58518,-33.26595 -6.59163,-16.85808 -16.37977,-33.91461 -28.41317,-49.512 l -5.70327,-7.39243 3.36267,-9.03615 c 4.03453,-10.84156 7.56689,-23.9716 7.73693,-28.75874 0.068,-1.91429 0.38928,-3.48304 0.71397,-3.48611 0.32468,-0.003 0.49849,-1.2776 0.38623,-2.8323 -0.11225,-1.55469 0.0239,-3.05469 0.30253,-3.33333 0.93247,-0.93247 0.51393,-19.83084 -0.58993,-26.63744 -5.00749,-30.876832 -28.36699,-56.551146 -63.33655,-69.61288 l -6.93309,-2.589631 H 85.769333 1.4524264 L 1.4521458,29.265438 1.4518652,1.5868668 92.462726,2.1343597 l 91.010864,0.547493 10.3356,3.5229929 c 17.11739,5.8346344 29.66338,12.0200044 42.06921,20.7407894 7.4875,5.263402 19.49599,16.500267 25.56999,23.926946 17.26148,21.105607 28.50282,50.814999 30.81066,81.428569 0.9821,13.02763 0.3828,37.95462 -1.14684,47.70055 -1.42934,9.1069 -1.10765,11.28192 2.25638,15.25619 16.36621,19.33513 26.36501,42.0129 31.60692,71.68612 2.08248,11.78843 3.2552,22.32341 6.12241,55 1.3961,15.91071 2.7341,30.61607 2.97335,32.67857 l 0.43498,3.75 -34.20548,-0.11432 c -18.81302,-0.0629 -35.27597,-0.24587 -36.58433,-0.40667 z"
       id="path833"
       inkscape:connector-curvature="0"
       transform="matrix(0.26458333,0,0,0.26458333,61.855802,123.14181)" />
    <path
       style="opacity:1;fill:#4c3d6d;fill-opacity:0.82941176;stroke:none;stroke-width:75;stroke-linecap:butt;stroke-linejoin:miter;stroke-miterlimit:4;stroke-dasharray:none;stroke-opacity:1;paint-order:normal"
       d="M 1.4524264,148.72972 V 120.51544 H 81.673019 161.89361 l 4.24369,2.54795 c 5.63303,3.38212 7.63711,5.38913 10.19395,10.20887 3.43012,6.46588 4.62457,11.61533 4.23305,18.24935 -0.6054,10.25842 -4.93412,18.14588 -12.5851,22.93159 l -3.98207,2.49081 H 82.724776 1.4524264 Z"
       id="path835"
       inkscape:connector-curvature="0"
       transform="matrix(0.26458333,0,0,0.26458333,61.855802,123.14181)" />
    <path
       style="opacity:1;fill:#4c3d6d;fill-opacity:0.91764706;stroke:none;stroke-width:75;stroke-linecap:butt;stroke-linejoin:miter;stroke-miterlimit:4;stroke-dasharray:none;stroke-opacity:1;paint-order:normal"
       d="M 1.4524264,301.91395 V 241.1696 l 55.5357136,0.39714 c 30.544643,0.21842 59.3066,0.56209 63.91546,0.7637 24.44845,1.06948 46.88939,15.10785 59.53865,37.24556 5.15288,9.01817 6.97136,15.5215 6.95367,24.86801 -0.0186,9.81911 -1.64321,16.19167 -6.93173,27.18982 -4.19877,8.73188 -8.92455,16.10896 -16.09939,25.13161 l -4.68601,5.89285 H 80.565612 1.4524264 Z"
       id="path837"
       inkscape:connector-curvature="0"
       transform="matrix(0.26458333,0,0,0.26458333,61.855802,123.14181)" />
  </g>
</svg>
