<?xml version="1.0" encoding="UTF-8" standalone="no"?>
<!-- Created with Inkscape (http://www.inkscape.org/) -->

<svg
   xmlns:dc="http://purl.org/dc/elements/1.1/"
   xmlns:cc="http://creativecommons.org/ns#"
   xmlns:rdf="http://www.w3.org/1999/02/22-rdf-syntax-ns#"
   xmlns:svg="http://www.w3.org/2000/svg"
   xmlns="http://www.w3.org/2000/svg"
   xmlns:sodipodi="http://sodipodi.sourceforge.net/DTD/sodipodi-0.dtd"
   xmlns:inkscape="http://www.inkscape.org/namespaces/inkscape"
   id="svg2"
   sodipodi:version="0.32"
   inkscape:version="0.92.2 2405546, 2018-03-11"
   width="143.61946"
   height="111.51353"
   version="1.0"
   sodipodi:docname="logo.svg"
   inkscape:output_extension="org.inkscape.output.svg.inkscape">
  <metadata
     id="metadata7">
    <rdf:RDF>
      <cc:Work
         rdf:about="">
        <dc:format>image/svg+xml</dc:format>
        <dc:type
           rdf:resource="http://purl.org/dc/dcmitype/StillImage" />
      </cc:Work>
    </rdf:RDF>
  </metadata>
  <defs
     id="defs5" />
  <sodipodi:namedview
     inkscape:window-height="959"
     inkscape:window-width="1280"
     inkscape:pageshadow="2"
     inkscape:pageopacity="0.0"
     guidetolerance="10.0"
     gridtolerance="10.0"
     objecttolerance="10.0"
     borderopacity="1.0"
     bordercolor="#666666"
     pagecolor="#ffffff"
     id="base"
     inkscape:zoom="1"
     inkscape:cx="52.403753"
     inkscape:cy="5.7140281"
     inkscape:window-x="0"
     inkscape:window-y="0"
     inkscape:current-layer="svg2"
     showgrid="false"
     inkscape:window-maximized="1" />
  <path
     style="fill:#000000;fill-opacity:1"
     d="M 19.25,111.46461 0,111.48197 V 56.553923 1.6258801 L 5.75,0.89281814 c 3.1625,-0.403185 12.5,-0.7730649 20.75,-0.8219567 11.685453,-0.069251 16.255896,0.2997079 20.683564,1.66972666 3.12596,0.967242 7.62596,3.238255 10,5.046696 C 59.557604,8.5957251 62.625,12.079345 64,14.528663 c 2.121309,3.778734 3.5,5.740852 3.5,12.953304 0,7.566851 -1.328104,9.092443 -3.988678,13.896525 -1.643772,2.968088 -4.231272,6.315214 -5.75,7.438058 C 56.242595,49.939394 55,51.167208 55,51.545025 c 0,0.377818 1.282592,0.94346 2.850204,1.256983 1.567613,0.313522 4.830113,2.078285 7.25,3.921696 2.419888,1.84341 5.524796,5.355641 6.899796,7.804959 2.164494,3.855659 3.244338,5.661127 3.207807,13.453304 -0.03624,7.730896 -1.164969,9.717751 -3.435778,14.09002 -1.453972,2.79951 -4.264097,6.51285 -6.244722,8.251863 -1.980626,1.73901 -5.888044,4.3207 -8.683151,5.73709 -2.795108,1.41639 -8.065996,3.20774 -11.713085,3.98078 -4.361191,0.9244 -13.220533,1.41147 -25.881071,1.42289 z m 10.5,-16.136553 c 8.965085,-0.31287 11.579953,-0.78785 15.748555,-2.86063 2.821855,-1.40313 5.978982,-3.965122 7.25,-5.883343 1.673449,-2.525571 2.245807,-4.836072 2.229483,-9 C 54.964996,74.257217 54.18379,70.280927 53.054554,67.793667 51.967585,65.399504 49.39887,62.334659 47.058051,60.638978 44.805811,59.007464 40.833878,57.20682 38.231534,56.637548 35.62919,56.068275 31.7,55.297241 29.5,54.92414 l -4,-0.678366 4.920935,-1.462006 c 2.706514,-0.804103 6.401615,-2.468154 8.211335,-3.697891 1.809721,-1.229736 4.233453,-3.434781 5.386072,-4.900099 1.152619,-1.465317 2.593455,-5.340913 3.201859,-8.612434 0.939943,-5.054287 0.84609,-6.629274 -0.624496,-10.47995 C 45.459299,22.11776 43.731,19.860801 41.562474,18.520578 39.746073,17.397981 35.94214,16.039932 33.10929,15.502693 30.276439,14.965454 25.942956,14.802177 23.479326,15.139855 L 19,15.753815 v 39.9747 39.974702 z m 102.95679,16.153913 h -11.2932 L 103.60508,86.972829 c -9.79468,-13.480026 -19.64373,-26.080026 -21.88679,-28 -2.24306,-1.919974 -4.197288,-4.490862 -4.648289,-4.490862 -0.451,0 0.318365,-0.63455 -0.07,-0.362319 -0.75,0.525725 1.715707,-0.152114 4.72935,-0.506308 3.01364,-0.354194 7.75052,-2.087283 10.83196,-3.240196 3.08144,-1.152914 7.16372,-3.466875 9.071729,-5.142136 1.90802,-1.67526 4.12114,-4.306782 4.91804,-5.847825 C 107.34799,37.84214 108,34.375487 108,31.67951 c 0,-3.429581 -0.67678,-5.906056 -2.2534,-8.245594 -1.23937,-1.839099 -3.82687,-4.266057 -5.75,-5.393239 -2.82824,-1.657687 -5.65373,-2.11894 -14.78191,-2.413113 L 73.929384,15.263873 72.023607,11.52824 C 70.975429,9.4736411 68.469061,6.3449691 66.4539,4.5756341 64.438739,2.8063001 62.091417,1.0572161 62.459851,0.68878214 62.828285,0.32034844 72.313042,0.01059204 82.31487,4.348431e-4 96.74966,-0.01422416 101.64743,0.33746984 106.0638,1.7057721 c 3.06009,0.948093 7.44595,3.08723 9.74636,4.753638 2.30041,1.666407 5.5018,4.8509829 7.1142,7.0768349 1.6124,2.225851 3.42259,6.336246 4.02264,9.13421 0.78965,3.681997 0.78759,6.760515 -0.007,11.144987 -0.60417,3.331779 -1.92479,7.677474 -2.93472,9.6571 -1.00993,1.979627 -3.8947,5.496745 -6.4106,7.815818 -2.51589,2.319073 -6.15382,4.969692 -8.08428,5.890264 C 107.57947,58.099196 106,59.13359 106,59.477277 c 0,0.343687 8.54751,11.847841 18.99446,25.564787 10.44695,13.716943 18.62195,25.777406 18.625,26.189906 0.003,0.4125 -4.7014,0.25 -10.91267,0.25 z"
     id="path3165"
     sodipodi:nodetypes="cccccssssssssssssssssccsssssscccssssssccccccccsssssssssscccssssssssssssssc"
     inkscape:connector-curvature="0" />
</svg>
