<?xml version="1.0" encoding="UTF-8" standalone="no"?>
<!-- Created with Inkscape (http://www.inkscape.org/) -->

<svg
   xmlns:osb="http://www.openswatchbook.org/uri/2009/osb"
   xmlns:dc="http://purl.org/dc/elements/1.1/"
   xmlns:cc="http://creativecommons.org/ns#"
   xmlns:rdf="http://www.w3.org/1999/02/22-rdf-syntax-ns#"
   xmlns:svg="http://www.w3.org/2000/svg"
   xmlns="http://www.w3.org/2000/svg"
   xmlns:sodipodi="http://sodipodi.sourceforge.net/DTD/sodipodi-0.dtd"
   xmlns:inkscape="http://www.inkscape.org/namespaces/inkscape"
   width="127.49401mm"
   height="95.867378mm"
   viewBox="0 0 127.49401 95.867378"
   version="1.1"
   id="svg959"
   inkscape:version="0.92.2 2405546, 2018-03-11"
   sodipodi:docname="mail.svg">
  <defs
     id="defs953">
    <linearGradient
       id="linearGradient5345"
       osb:paint="solid">
      <stop
         style="stop-color:#000000;stop-opacity:1;"
         offset="0"
         id="stop5343" />
    </linearGradient>
  </defs>
  <sodipodi:namedview
     id="base"
     pagecolor="#ffffff"
     bordercolor="#666666"
     borderopacity="1.0"
     inkscape:pageopacity="0.0"
     inkscape:pageshadow="2"
     inkscape:zoom="1.4707821"
     inkscape:cx="237.97867"
     inkscape:cy="171.83814"
     inkscape:document-units="mm"
     inkscape:current-layer="layer1"
     showgrid="false"
     inkscape:window-width="1280"
     inkscape:window-height="959"
     inkscape:window-x="0"
     inkscape:window-y="0"
     inkscape:window-maximized="1" />
  <metadata
     id="metadata956">
    <rdf:RDF>
      <cc:Work
         rdf:about="">
        <dc:format>image/svg+xml</dc:format>
        <dc:type
           rdf:resource="http://purl.org/dc/dcmitype/StillImage" />
        <dc:title></dc:title>
      </cc:Work>
    </rdf:RDF>
  </metadata>
  <g
     inkscape:label="Layer 1"
     inkscape:groupmode="layer"
     id="layer1"
     transform="translate(-34.962886,-99.983745)">
    <path
       id="path2625"
       d="M 34.963036,147.91751 V 99.983745 H 98.709964 162.4569 l -0.12606,47.808365 -0.12607,47.80836 -63.620927,0.12532 -63.620957,0.12533 z m 100.437374,23.5977 -20.87332,-20.87332 -5.80967,5.75226 c -6.00419,5.94484 -7.98817,7.34653 -10.355974,7.31656 -2.038478,-0.0257 -2.895495,-0.65309 -9.561714,-6.99874 l -6.072929,-5.7809 -20.669949,20.29772 c -11.368475,11.16374 -20.669958,20.49167 -20.669958,20.72873 0,0.24279 25.085779,0.43101 57.443418,0.43101 H 156.27372 Z M 59.298859,127.03882 38.422037,106.16201 v 41.75362 41.75365 L 59.298859,168.79246 80.17568,147.91563 Z m 99.694111,20.83566 c 0,-22.85207 -0.17817,-41.47511 -0.39602,-41.38452 -0.21784,0.0906 -9.5993,9.46089 -20.8477,20.82288 l -20.45163,20.65815 20.72195,20.72634 c 11.39705,11.3995 20.77851,20.72633 20.84768,20.72633 0.0691,0 0.1257,-18.69714 0.1257,-41.54918 z m -31.07731,-15.89357 27.97282,-28.29108 -28.59048,-0.12756 c -15.72476,-0.0702 -41.541885,-0.0702 -57.371358,0 l -28.780882,0.12756 28.163202,28.30525 c 22.416914,22.52998 28.41525,28.30236 29.398555,28.29109 0.969747,-0.0113 7.249353,-6.09661 29.208143,-28.30526 z"
       style="fill:#585252;fill-opacity:1"
       inkscape:connector-curvature="0" />
    <g
       id="g1624"
       transform="matrix(0.0049931,0,0,-0.0049931,66.895397,153.21282)"
       style="fill:#000000;stroke:none">
      <path
         id="path1616"
         d="m 6075,9409 c -55,-5 -199,-15 -321,-24 C 4275,9282 2824,8788 1578,7963 1163,7689 778,7382 378,7007 200,6840 131,6761 84,6665 45,6586 0,6417 0,6350 c 0,-67 45,-236 84,-315 89,-180 264,-319 466,-371 78,-20 231,-22 313,-5 150,32 247,91 411,249 247,238 460,420 718,615 1008,761 2207,1248 3478,1411 320,41 489,51 930,51 441,0 610,-10 930,-51 1472,-189 2844,-812 3940,-1789 74,-66 189,-172 256,-237 164,-158 261,-217 411,-249 82,-17 235,-15 313,5 202,52 377,191 466,371 39,79 84,248 84,315 0,67 -45,236 -84,315 -47,96 -116,175 -294,342 -432,405 -846,730 -1297,1020 -1226,787 -2639,1257 -4073,1358 -119,8 -275,19 -347,25 -149,11 -483,11 -630,-1 z"
         inkscape:connector-curvature="0"
         style="fill:#5ab484;fill-opacity:1" />
      <path
         id="path1618"
         d="M 6230,6804 C 5049,6766 3962,6426 3005,5795 2637,5553 2223,5214 1997,4970 c -116,-125 -177,-280 -177,-451 0,-256 144,-487 375,-599 220,-106 470,-87 672,51 26,18 97,80 158,138 524,503 1119,865 1798,1097 1169,398 2453,338 3577,-168 510,-229 953,-531 1392,-945 131,-125 198,-169 313,-209 71,-25 94,-28 205,-28 108,0 136,4 206,27 183,61 340,206 411,380 29,71 53,188 53,258 0,131 -59,297 -145,409 -87,114 -464,447 -730,646 -955,715 -2091,1136 -3270,1213 -178,12 -472,19 -605,15 z"
         inkscape:connector-curvature="0"
         style="fill:#438763;fill-opacity:1" />
      <path
         id="path1620"
         d="m 6055,4349 c -867,-86 -1636,-436 -2250,-1021 -179,-170 -251,-308 -262,-503 -17,-296 174,-571 462,-667 101,-33 299,-33 400,0 106,35 189,90 315,207 393,366 850,581 1373,650 149,19 446,20 597,1 463,-58 893,-240 1245,-526 39,-32 116,-100 173,-153 159,-147 297,-207 483,-207 184,0 334,64 469,199 134,135 193,275 193,461 0,221 -77,371 -291,567 -603,551 -1275,865 -2092,979 -135,19 -674,28 -815,13 z"
         inkscape:connector-curvature="0"
         style="stroke:none;stroke-opacity:1;fill:#2d5a42;fill-opacity:1" />
      <path
         id="path1622"
         d="m 6275,1639 c -193,-28 -352,-113 -492,-263 -244,-261 -281,-672 -89,-981 121,-193 310,-321 556,-374 140,-31 162,-30 359,21 222,57 425,231 526,452 54,118 69,194 68,341 0,110 -4,143 -27,218 -14,49 -38,112 -52,140 -157,313 -505,495 -849,446 z"
         inkscape:connector-curvature="0" />
    </g>
  </g>
</svg>
