<?xml version="1.0" encoding="UTF-8" standalone="no"?>
<!-- Created with Inkscape (http://www.inkscape.org/) -->

<svg
   xmlns:dc="http://purl.org/dc/elements/1.1/"
   xmlns:cc="http://creativecommons.org/ns#"
   xmlns:rdf="http://www.w3.org/1999/02/22-rdf-syntax-ns#"
   xmlns:svg="http://www.w3.org/2000/svg"
   xmlns="http://www.w3.org/2000/svg"
   xmlns:sodipodi="http://sodipodi.sourceforge.net/DTD/sodipodi-0.dtd"
   xmlns:inkscape="http://www.inkscape.org/namespaces/inkscape"
   width="86.609146mm"
   height="82.263977mm"
   viewBox="0 0 86.609147 82.263976"
   version="1.1"
   id="svg8"
   inkscape:version="0.92.2 2405546, 2018-03-11"
   sodipodi:docname="stamp.svg">
  <defs
     id="defs2" />
  <sodipodi:namedview
     id="base"
     pagecolor="#ffffff"
     bordercolor="#666666"
     borderopacity="1.0"
     inkscape:pageopacity="0.0"
     inkscape:pageshadow="2"
     inkscape:zoom="0.98994949"
     inkscape:cx="144.80845"
     inkscape:cy="98.009597"
     inkscape:document-units="mm"
     inkscape:current-layer="layer1"
     showgrid="false"
     showborder="false"
     inkscape:window-width="1280"
     inkscape:window-height="959"
     inkscape:window-x="0"
     inkscape:window-y="0"
     inkscape:window-maximized="1" />
  <metadata
     id="metadata5">
    <rdf:RDF>
      <cc:Work
         rdf:about="">
        <dc:format>image/svg+xml</dc:format>
        <dc:type
           rdf:resource="http://purl.org/dc/dcmitype/StillImage" />
        <dc:title />
      </cc:Work>
    </rdf:RDF>
  </metadata>
  <g
     inkscape:label="Layer 1"
     inkscape:groupmode="layer"
     id="layer1"
     transform="translate(-39.209979,24.657534)">
    <path
       style="fill:none;stroke:#000000;stroke-width:0.26458332px;stroke-linecap:butt;stroke-linejoin:miter;stroke-opacity:1"
       d="M 79.779952,-9.9590525 V 2.6026151 H 93.945238 V -24.525242 H 72.029137"
       id="path828"
       inkscape:connector-curvature="0" />
    <path
       style="fill:none;stroke:#000000;stroke-width:0.26458332px;stroke-linecap:butt;stroke-linejoin:miter;stroke-opacity:1"
       d="m 72.029137,-24.525242 c 0,0 -22.325269,3.647266 -21.947294,16.3094679 0,0 -1.104702,28.5918131 10.855609,28.2577261 L 39.439115,57.278163 H 55.373512 L 75.075084,23.154039"
       id="path830"
       inkscape:connector-curvature="0" />
    <path
       style="fill:none;stroke:#000000;stroke-width:0.26458332px;stroke-linecap:butt;stroke-linejoin:miter;stroke-opacity:1"
       d="M 75.075083,23.154039 H 103.94345"
       id="path832"
       inkscape:connector-curvature="0" />
    <path
       style="fill:none;stroke:#000000;stroke-width:0.26458332px;stroke-linecap:butt;stroke-linejoin:miter;stroke-opacity:1"
       d="m 103.94345,23.154039 c 0,0 17.76488,10.585543 0.0945,20.696407 H 93.832589 V 30.337797 H 78.90253 v 27.119792 h 18.615327"
       id="path834"
       inkscape:connector-curvature="0" />
    <path
       style="fill:none;stroke:#000000;stroke-width:0.26458332px;stroke-linecap:butt;stroke-linejoin:miter;stroke-opacity:1"
       d="m 97.517856,57.457588 c 0,0 23.056544,1.228423 27.403274,-17.481399 0,0 1.51191,-6.425594 0.28348,-11.811755 0,0 -1.70089,-11.339286 -18.80431,-18.142857 H 72.563677 c 0,0 -8.68626,-1.8063018 -8.68626,-7.6862314 l 0.133635,-6.4144686 c 0,0 1.069078,-4.8108515 5.746295,-5.8799296 l 10.022605,10e-8"
       id="path836"
       inkscape:connector-curvature="0" />
    <path
       style="fill:none;stroke:#000000;stroke-width:0.26458332px;stroke-linecap:butt;stroke-linejoin:miter;stroke-opacity:1"
       d="m 107.97689,-23.857072 c 12.18973,4.724703 16.84975,18.4761191 16.84975,18.4761191 C 127.66146,3.5014876 121.89732,12.66741 121.89732,12.66741 119.81845,6.4308031 111.21949,3.5959817 111.21949,3.5959817 117.07812,-8.7827386 97.13988,-10.861607 97.13988,-10.861607 v -12.945685 l 10.83701,-0.04978"
       id="path838"
       inkscape:connector-curvature="0"
       sodipodi:nodetypes="ccccccc" />
    <path
       style="opacity:1;fill:#4c3d6d;fill-opacity:1;stroke:none;stroke-width:75;stroke-linecap:butt;stroke-linejoin:miter;stroke-miterlimit:4;stroke-dasharray:none;stroke-opacity:1;paint-order:normal"
       d="m 299.61023,166.19383 v -50.60575 h 27.27412 27.27412 v 25.75889 25.75889 l 19.44544,-0.0101 19.44543,-0.0101 6.06092,-3.85819 c 9.35364,-5.95423 16.96165,-13.49402 20.75176,-20.56566 2.99034,-5.5794 3.41718,-7.30567 3.45208,-13.96135 0.0346,-6.5957 -0.39866,-8.48575 -3.29351,-14.36834 -3.90736,-7.94009 -11.19761,-16.252793 -20.29063,-23.136387 l -6.49942,-4.920191 -55.10354,0.261095 -55.10355,0.262094 -37.04611,64.144689 -37.0461,64.14468 -28.97826,0.26815 -28.97825,0.26814 2.63622,-4.81383 c 1.44993,-2.64761 19.58174,-34.13351 40.29293,-69.96867 L 231.56059,75.687053 226.442,74.599886 c -6.99596,-1.485924 -10.55435,-3.521664 -15.46185,-8.845673 -13.42572,-14.565178 -21.11917,-48.906596 -20.2919,-90.577338 l 0.35095,-17.67767 3.33143,-6.400773 c 8.76495,-16.840331 31.8351,-31.112402 63.9371,-39.553924 l 11.503,-3.024821 42.17387,-0.0064 42.17387,-0.0064 V -41.490642 8.5119085 H 328.4182 302.67792 l -0.27115,-23.4860465 -0.27116,-23.486047 h -20.70812 c -20.60999,0 -20.72967,0.01274 -25.25382,2.6878 -5.89988,3.488521 -9.35903,7.228099 -12.50052,13.513938 -2.35229,4.706725 -2.55965,6.266266 -2.75338,20.708127 -0.1648,12.285685 0.1281,16.407421 1.37275,19.3176 2.54483,5.950202 9.28704,11.821643 18.80269,16.37429 l 8.71552,4.169839 67.17515,0.505076 67.17514,0.505076 10.10153,5.098967 c 14.14716,7.141092 23.569,13.609361 33.45583,22.968081 9.48024,8.973822 17.9537,20.986 21.93106,31.08997 7.29534,18.532821 5.11663,49.442231 -4.93856,70.063131 -11.29931,23.17229 -33.83275,38.40577 -66.77545,45.14278 -10.05338,2.05599 -14.5134,2.27451 -54.6361,2.67691 l -43.6891,0.43819 z"
       id="path840"
       inkscape:connector-curvature="0"
       transform="scale(0.26458333)" />
    <path
       style="opacity:1;fill:#4c3d6d;fill-opacity:1;stroke:none;stroke-width:75;stroke-linecap:butt;stroke-linejoin:miter;stroke-miterlimit:4;stroke-dasharray:none;stroke-opacity:1;paint-order:normal"
       d="m 459.89271,44.101827 c -3.95244,-9.072468 -13.09965,-17.911454 -25.95915,-25.084418 -3.76079,-2.097747 -11.22752,-5.517297 -12.0606,-5.523411 -0.60849,-0.0045 -0.60734,-0.01 0.77435,-3.703857 3.72337,-9.95429648 3.04507,-19.1715501 -1.97695,-26.864522 -4.15998,-6.372446 -11.74463,-12.055967 -21.81956,-16.350396 -7.60503,-3.241632 -16.79204,-5.851393 -26.17507,-7.435575 l -4.82062,-0.813889 v -23.84609 -23.846089 l 20.44642,4.07e-4 20.44643,4.07e-4 5.71429,2.824689 c 21.72094,10.737107 39.93633,30.320844 52.34915,56.28164 5.49953,11.501986 7.11513,18.287411 7.11513,29.88305366 0,13.70368934 -3.55954,27.75647834 -10.61386,41.90266034 -1.2734,2.553572 -2.34639,4.676783 -2.38443,4.718247 -0.038,0.04146 -0.50402,-0.922822 -1.03553,-2.142857 z"
       id="path859"
       inkscape:connector-curvature="0"
       transform="scale(0.26458333)" />
  </g>
</svg>
