<?xml version="1.0" encoding="UTF-8" standalone="no"?>
<!-- Generator: Adobe Illustrator 17.0.2, SVG Export Plug-In . SVG Version: 6.00 Build 0)  -->

<svg
   xmlns:dc="http://purl.org/dc/elements/1.1/"
   xmlns:cc="http://creativecommons.org/ns#"
   xmlns:rdf="http://www.w3.org/1999/02/22-rdf-syntax-ns#"
   xmlns:svg="http://www.w3.org/2000/svg"
   xmlns="http://www.w3.org/2000/svg"
   xmlns:sodipodi="http://sodipodi.sourceforge.net/DTD/sodipodi-0.dtd"
   xmlns:inkscape="http://www.inkscape.org/namespaces/inkscape"
   version="1.1"
   id="Layer_1"
   x="0px"
   y="0px"
   width="19.13512"
   height="15.864085"
   viewBox="0 0 19.13512 15.864085"
   xml:space="preserve"
   sodipodi:docname="twitter.svg"
   inkscape:version="0.92.2 2405546, 2018-03-11"><metadata
   id="metadata9"><rdf:RDF><cc:Work
       rdf:about=""><dc:format>image/svg+xml</dc:format><dc:type
         rdf:resource="http://purl.org/dc/dcmitype/StillImage" /><dc:title></dc:title></cc:Work></rdf:RDF></metadata><defs
   id="defs7" /><sodipodi:namedview
   pagecolor="#ffffff"
   bordercolor="#666666"
   borderopacity="1"
   objecttolerance="10"
   gridtolerance="10"
   guidetolerance="10"
   inkscape:pageopacity="0"
   inkscape:pageshadow="2"
   inkscape:window-width="1280"
   inkscape:window-height="959"
   id="namedview5"
   showgrid="false"
   showborder="false"
   inkscape:zoom="7.375"
   inkscape:cx="-10.149156"
   inkscape:cy="7.9147822"
   inkscape:window-x="0"
   inkscape:window-y="0"
   inkscape:window-maximized="1"
   inkscape:current-layer="Layer_1" />
<path
   d="m 19.494657,1.8003034 c -0.727,0.325 -1.515,0.543 -2.336,0.641 0.841001,-0.504 1.484,-1.301 1.789,-2.25199998 -0.789,0.469 -1.657,0.806 -2.584,0.98699998 -0.741,-0.78999998 -1.797999,-1.28599998 -2.971,-1.28599998 -2.242999,0 -4.0659995,1.82199998 -4.0659995,4.07199998 0,0.319 0.035,0.626 0.102,0.927 -3.378,-0.17 -6.376,-1.79 -8.384,-4.25299998 -0.351,0.60199998 -0.552,1.30099998 -0.552,2.04599998 0,1.413 0.717,2.657 1.812,3.386 -0.666,-0.019 -1.293,-0.203 -1.842,-0.508 0,0.017 0,0.032 0,0.051 0,1.971 1.399,3.616 3.263,3.988 -0.344,0.095 -0.703,0.143 -1.071,0.143 -0.262,0 -0.518,-0.024 -0.766,-0.071 0.52,1.6179996 2.02,2.7909996 3.797,2.8239996 -1.388,1.092 -3.143,1.743 -5.049,1.743 -0.331,0 -0.656,-0.02 -0.971,-0.058 1.801,1.153 3.939,1.827 6.236,1.827 7.4840005,0 11.5749995,-6.1989996 11.5749995,-11.5749996 0,-0.177 -10e-4,-0.352 -0.015,-0.525 0.797,-0.576 1.489,-1.292 2.033,-2.107 z"
   id="path2"
   inkscape:connector-curvature="0" />
<path
   style="opacity:1;fill:#483b63;fill-opacity:1;stroke:none;stroke-width:75;stroke-linecap:butt;stroke-linejoin:miter;stroke-miterlimit:4;stroke-dasharray:none;stroke-opacity:1;paint-order:normal"
   d="M 3.0894796,15.572075 C 2.4134412,15.392801 1.441747,15.035105 0.9301594,14.777196 L 0,14.308268 1.2101677,14.235088 c 1.3582868,-0.08213 2.5823408,-0.46982 3.7852938,-1.198885 0.837625,-0.507654 0.92447,-0.666562 0.364283,-0.666562 -0.602584,0 -1.552036,-0.375911 -2.1089914,-0.835 -0.5002498,-0.412349 -1.1694007,-1.329603 -1.1694007,-1.6029826 0,-0.07606 0.2898305,-0.139223 0.6440678,-0.140365 1.0074623,-0.0032 1.0885343,-0.175487 0.2468115,-0.524362 -1.2150206,-0.503598 -2.371883,-2.004677 -2.3794268,-3.08741 l -0.00298,-0.427407 0.6317194,0.190119 c 1.1619969,0.34971 1.2314125,0.27022 0.4810205,-0.550828 C 0.6433907,4.2325004 0.3158418,2.7813754 0.7956057,1.3733458 L 1.0013845,0.76941852 1.8684114,1.615389 c 1.0687466,1.0427914 2.4476831,1.9477374 3.7821351,2.4820774 1.075996,0.43085 2.673796,0.814754 3.388823,0.814235 l 0.431813,-3.11e-4 v -0.992881 c 0,-0.837473 0.06405,-1.118028 0.409188,-1.792428 1.1495585,-2.24622038 4.0129145,-2.81461038 6.1123115,-1.21332288 0.429361,0.32748968 0.443699,0.32893338 1.160007,0.11679308 0.3989,-0.11813738 0.89874,-0.30419038 1.110755,-0.41345118 0.212015,-0.1092609 0.414726,-0.1694133 0.450467,-0.1336721 0.121669,0.1216694 -0.611929,1.13860258 -1.128583,1.56447308 -0.424958,0.350284 -0.466441,0.424436 -0.237447,0.424436 0.15261,0 0.599649,-0.09568 0.993421,-0.212615 0.393773,-0.116938 0.749594,-0.178971 0.790714,-0.137851 0.04112,0.04112 -0.330999,0.466784 -0.826934,0.945921 -0.893326,0.863073 -0.901696,0.877964 -0.901696,1.604474 0,2.72201 -1.395161,5.9454146 -3.472366,8.0226206 -1.344626,1.344625 -2.61399,2.109878 -4.5276335,2.729542 -0.990214,0.320644 -1.429457,0.380349 -3.118644,0.423902 -1.744289,0.04498 -2.104775,0.01392 -3.1952629,-0.275256 z"
   id="path859"
   inkscape:connector-curvature="0" /></svg>